<?xml version="1.0" standalone="no"?><!DOCTYPE svg PUBLIC "-//W3C//DTD SVG 1.1//EN" "http://www.w3.org/Graphics/SVG/1.1/DTD/svg11.dtd"><svg t="1592103229111" class="icon" viewBox="0 0 1024 1024" version="1.1" xmlns="http://www.w3.org/2000/svg" p-id="4004" xmlns:xlink="http://www.w3.org/1999/xlink" width="200" height="200"><defs><style type="text/css"></style></defs><path d="M912.218 658.967c-18.506-106.25-96.26-175.86-96.26-175.86 11.104-96.46-29.619-113.584-29.619-113.584C777.774 71.064 517.959 76.298 512.5 76.435c-5.454-0.156-265.313-5.371-273.844 293.087 0 0-40.728 17.124-29.62 113.584 0 0-77.749 69.61-96.26 175.86 0 0-9.888 179.522 88.853 21.982 0 0 22.222 59.825 62.945 113.585 0 0-72.823 24.424-66.646 87.9 0 0-2.476 70.831 155.504 65.958 0 0 111.07-8.535 144.39-54.952l29.366 0c33.33 46.417 144.385 54.952 144.385 54.952 157.94 4.873 155.489-65.958 155.489-65.958 6.152-63.477-66.631-87.9-66.631-87.9 40.723-53.76 62.939-113.585 62.939-113.585 98.711 157.54 88.857-21.982 88.857-21.982L912.218 658.966zM912.218 658.967" p-id="4005" fill="#2c2c2c"></path></svg>