<?xml version="1.0" standalone="no"?><!DOCTYPE svg PUBLIC "-//W3C//DTD SVG 1.1//EN" "http://www.w3.org/Graphics/SVG/1.1/DTD/svg11.dtd"><svg t="1591690387504" class="icon" viewBox="0 0 1024 1024" version="1.1" xmlns="http://www.w3.org/2000/svg" p-id="824" xmlns:xlink="http://www.w3.org/1999/xlink" width="200" height="200"><defs><style type="text/css"></style></defs><path d="M768.271136 585.143609c121.162365 0 219.365018 98.130262 219.365018 219.366334 0 121.162365-98.201337 219.366334-219.365018 219.366335s-219.366334-98.203969-219.366334-219.366335c0-121.236072 98.202653-219.366334 219.366334-219.366334z m107.414705 328.024843c14.259661-14.258344 14.259661-37.437861 0-51.696205l-70.854746-70.929769v-93.66836c0-20.108833-16.306344-36.561275-36.559959-36.561275-20.18254 0-36.561275 16.452442-36.561275 36.561275v93.669676a73.108072 73.108072 0 0 0 21.425028 51.697522l70.854746 70.927136c14.258344 14.259661 37.437861 14.259661 51.697522 0z m-509.565039-328.045902c20.18254 0 36.561275-16.380051 36.561275-36.561275C402.682077 528.378735 386.303342 512 366.122118 512H219.878334c-20.18254 0-36.561275 16.378735-36.561275 36.561275 0 20.181224 16.378735 36.561275 36.561275 36.561275h146.242468z m-146.242468-219.366334c-20.18254 0-36.561275 16.378735-36.561275 36.561275 0 20.181224 16.378735 36.559959 36.561275 36.559959h292.487568c20.181224 0 36.561275-16.378735 36.561275-36.559959 0-20.18254-16.380051-36.561275-36.561275-36.561275H219.878334z m0-146.243784c-20.18254 0-36.561275 16.378735-36.561275 36.561275 0 20.181224 16.378735 36.559959 36.561275 36.559959h438.731352c20.181224 0 36.561275-16.378735 36.561275-36.559959 0-20.18254-16.380051-36.561275-36.561275-36.561275H219.878334zM768.292195 512C606.766067 512 475.804627 642.96144 475.804627 804.487568c0 87.819188 39.559568 165.768226 100.908751 219.366334H110.194509C69.758355 1023.853902 37.073275 991.168823 37.073275 950.731352V73.268648C37.073275 32.831177 69.758355 0.144781 110.194509 0.144781h731.220237c40.436154 0 73.121234 32.68508 73.121233 73.122551v479.313604C871.321337 527.429758 821.819229 512 768.293512 512z" fill="#ffffff" p-id="825"></path></svg>