<?xml version="1.0" standalone="no"?><!DOCTYPE svg PUBLIC "-//W3C//DTD SVG 1.1//EN" "http://www.w3.org/Graphics/SVG/1.1/DTD/svg11.dtd"><svg t="1592103185353" class="icon" viewBox="0 0 1244 1024" version="1.1" xmlns="http://www.w3.org/2000/svg" p-id="2143" xmlns:xlink="http://www.w3.org/1999/xlink" width="242.96875" height="200"><defs><style type="text/css"></style></defs><path d="M846.36992 0.304144a260.407437 260.407437 0 0 1 201.847789 81.251513A408.416949 408.416949 0 0 0 1178.988724 36.903925l31.768609-17.567895a260.627036 260.627036 0 0 1-82.825303 121.511271 130.368418 130.368418 0 0 1-28.072031 20.129879v0.365998A463.463018 463.463018 0 0 0 1244.392531 121.815415v0.731995a419.323683 419.323683 0 0 1-86.59508 100.649396c-13.28572 10.613936-26.571441 21.227873-39.857161 32.207807a751.283691 751.283691 0 0 1-11.858329 166.163003c-63.756817 290.236258-232.664804 487.509074-500.099398 572.054566a752.601283 752.601283 0 0 1-361.239832 15.00591 939.66276 939.66276 0 0 1-150.059099-49.775701 608.251749 608.251749 0 0 1-72.247967-37.697774c-7.319956-4.757971-14.96931-9.149945-22.399065-13.907916a424.81365 424.81365 0 0 0 81.58091 3.29398c25.07085-4.391974 49.702502-3.29398 72.833563-8.417949a512.726323 512.726323 0 0 0 153.24328-55.997664 277.609334 277.609334 0 0 0 69.136985-45.749726 215.938704 215.938704 0 0 1-75.981144-13.907916 258.24805 258.24805 0 0 1-161.954028-165.431007c25.03425 2.561985 97.099217 9.149945 113.971716-5.12397a184.206694 184.206694 0 0 1-83.447499-34.037795 249.390903 249.390903 0 0 1-120.193678-221.428671c8.710748 4.025976 17.421495 8.417949 26.132243 12.443925a256.893858 256.893858 0 0 0 53.545478 15.00591 74.517153 74.517153 0 0 0 34.916191 3.29398h-1.244393c-12.846523-15.00591-33.818197-25.253848-46.701319-41.357752A267.471195 267.471195 0 0 1 58.559649 114.861457a306.962358 306.962358 0 0 1 27.413235-67.343596c0.402598 0.365998 0.841795 0.365998 1.244393 0.731995a153.719077 153.719077 0 0 0 23.021261 27.083838 464.561012 464.561012 0 0 0 75.981144 73.565558 748.282509 748.282509 0 0 0 312.049727 152.987082 484.434692 484.434692 0 0 0 114.593913 15.00591 243.937536 243.937536 0 0 1 1.244392-121.511271A254.075675 254.075675 0 0 1 758.603647 21.898015 323.761657 323.761657 0 0 1 815.260107 3.964122c10.394338-1.097993 20.788675-2.195987 31.146413-3.659978z" fill="#00B8EB" p-id="2144"></path></svg>