<?xml version="1.0" standalone="no"?><!DOCTYPE svg PUBLIC "-//W3C//DTD SVG 1.1//EN" "http://www.w3.org/Graphics/SVG/1.1/DTD/svg11.dtd"><svg t="1592044992623" class="icon" viewBox="0 0 1024 1024" version="1.1" xmlns="http://www.w3.org/2000/svg" p-id="2677" xmlns:xlink="http://www.w3.org/1999/xlink" width="200" height="200"><defs><style type="text/css"></style></defs><path d="M510.54537 63.812351c-246.707868 0-446.708971 200.001103-446.708971 446.696692 0 246.726288 200.00008 446.728414 446.708971 446.728414 246.708891 0 446.708971-200.001103 446.708972-446.728414 0-246.696612-200.00008-446.696692-446.708972-446.696692z m0 848.745511c-222.046189 0-402.041656-180.001607-402.041656-402.048819 0-222.021629 179.995467-402.042679 402.041656-402.042679S912.588049 288.487414 912.588049 510.509043c0 222.046189-179.99649 402.048819-402.042679 402.048819z m202.778357-433.70275c-69.52547-47.284933-195.577351-118.088512-267.352048-161.957648-29.430286-18.555611-54.177923-11.107989-56.549947 21.675671-1.720178 87.786369 0 257.166057 0 346.47613 1.499144 33.275871 30.830169 37.650505 56.291051 24.305568 71.689762-43.449581 194.914248-118.088512 266.9724-161.76015-0.467651-0.270153 54.719252-30.622438 0.638544-68.739571z m0 0" fill="#cdcdcd" p-id="2678" data-spm-anchor-id="a313x.7781069.0.i0" class=""></path></svg>